<svg xmlns="http://www.w3.org/2000/svg" aria-label="Instagram Logo" viewBox="0 0 512 512"><defs><radialGradient id="a" cx="30%" cy="107%" r="150%" fx="50%" fy="50%"><stop offset="0%" stop-color="#fdf497"/><stop offset="5%" stop-color="#fdf497"/><stop offset="45%" stop-color="#fd5949"/><stop offset="60%" stop-color="#d6249f"/><stop offset="90%" stop-color="#285AEB"/></radialGradient></defs><rect width="512" height="512" fill="url(#a)" rx="15%"/><path fill="#fff" d="M349.33 69.33H162.67c-51.69 0-93.34 41.65-93.34 93.34v186.66c0 51.69 41.65 93.34 93.34 93.34h186.66c51.69 0 93.34-41.65 93.34-93.34V162.67c0-51.69-41.65-93.34-93.34-93.34m61.34 280c0 33.89-27.45 61.34-61.34 61.34H162.67c-33.89 0-61.34-27.45-61.34-61.34V162.67c0-33.89 27.45-61.34 61.34-61.34h186.66c33.89 0 61.34 27.45 61.34 61.34zM256 144c-61.76 0-112 50.24-112 112s50.24 112 112 112 112-50.24 112-112-50.24-112-112-112m0 181.34c-38.31 0-69.34-31.03-69.34-69.34s31.03-69.34 69.34-69.34 69.34 31.03 69.34 69.34-31.03 69.34-69.34 69.34M370.67 144a26.67 26.67 0 1 0 0-53.34 26.67 26.67 0 0 0 0 53.34"/></svg>